<?xml version="1.0" encoding="utf-8"?>
<!-- Generator: Adobe Illustrator 27.3.1, SVG Export Plug-In . SVG Version: 6.00 Build 0)  -->
<svg version="1.1" id="Layer_1" xmlns="http://www.w3.org/2000/svg" xmlns:xlink="http://www.w3.org/1999/xlink" x="0px" y="0px"
	 viewBox="0 0 1254 1254" style="enable-background:new 0 0 1254 1254;" xml:space="preserve">
<style type="text/css">
	.st0{fill:url(#SVGID_1_);}
	.st1{fill:url(#SVGID_00000086669091537890800450000001894396219857211313_);}
	.st2{fill:url(#SVGID_00000141442593995421999110000004208687265947669174_);}
	.st3{fill:url(#SVGID_00000138559051033375056750000017276077442671104177_);}
	.st4{fill:url(#SVGID_00000060714771666948924260000010453730572411154826_);}
	.st5{fill:url(#SVGID_00000028303238915062932730000000091749035553112462_);}
	.st6{fill:url(#SVGID_00000077302511238165334050000001113081396760776835_);}
	.st7{fill:url(#SVGID_00000098216749892458289300000011647409372485507755_);}
	.st8{fill:url(#SVGID_00000006665585533075317160000011767746860471700408_);}
	.st9{fill:url(#SVGID_00000034784022992127171910000014834059787896743857_);}
	.st10{fill:url(#SVGID_00000183953276633032072760000007098740450611951011_);}
	.st11{fill:url(#SVGID_00000093857545281065855200000001066446439598528407_);}
	.st12{fill:url(#SVGID_00000038413458293786351100000013973814586901090463_);}
	.st13{fill:url(#SVGID_00000156584428999966770850000002019040734334944129_);}
	.st14{fill:url(#SVGID_00000005252623735102674840000009338286295197488817_);}
	.st15{fill:url(#SVGID_00000143601148010417983310000009325278589238510242_);}
	.st16{fill:url(#SVGID_00000026864028338976828380000008921920066531093645_);}
	.st17{fill:url(#SVGID_00000155118365993487860740000009412690812297481630_);}
	.st18{fill:url(#SVGID_00000060025343836299118230000006846169743015686316_);}
	.st19{fill:url(#SVGID_00000085240681368216401890000016666879066051342725_);}
</style>
<g>
	<g>
		<linearGradient id="SVGID_1_" gradientUnits="userSpaceOnUse" x1="447.4058" y1="564.5804" x2="645.0262" y2="564.5804">
			<stop  offset="0" style="stop-color:#C9983E"/>
			<stop  offset="1" style="stop-color:#DBB759"/>
		</linearGradient>
		<path class="st0" d="M533.38,456.84c14.24-3.38,28.95-2.39,43.46-2.53c22.73,0.07,45.45-0.13,68.18,0.08
			c-8.93,14.14-17.69,28.38-26.42,42.65c-19.99-0.07-39.97-0.01-59.96-0.03c-20.64-0.55-41.48,8.4-54.74,24.34
			c-7.41,8.87-12.51,19.65-14.66,31c-2,11.39-1.31,23.27,2.38,34.25c4.23,12.95,12.39,24.64,23.29,32.86
			c12.55,9.76,28.56,14.62,44.4,14.2c19.62-0.02,39.24-0.04,58.86,0.03c-8.52,13.42-16.78,27-25.23,40.47
			c-0.36,1.03-1.6,0.6-2.39,0.73c-12.33-0.18-24.68,0.14-37-0.2c-35.91-1.24-70.6-21.32-89.42-51.93
			c-9.2-14.52-14.98-31.25-16.27-48.4c-2.73-29.06,7.04-58.92,25.77-81.23C488.79,474.86,510.17,461.86,533.38,456.84z"/>
		
			<linearGradient id="SVGID_00000097499397712235685560000002528530498146091695_" gradientUnits="userSpaceOnUse" x1="573.8493" y1="569.0022" x2="797.58" y2="569.0022">
			<stop  offset="0" style="stop-color:#C9983E"/>
			<stop  offset="1" style="stop-color:#DBB759"/>
		</linearGradient>
		<path style="fill:url(#SVGID_00000097499397712235685560000002528530498146091695_);" d="M608.41,565.55
			c20.96-34.1,41.82-68.26,62.71-102.4c42.34,70.46,84.32,141.13,126.47,211.69c-17.01,0.04-34.01-0.05-51.01,0.01
			c-10.71-18.44-21.9-36.61-32.8-54.95c-14-23.44-28.26-46.72-42.35-70.1c-0.18-0.04-0.55-0.12-0.73-0.16
			c-15.22,24.01-30.05,48.26-45.11,72.35c-17.24-0.04-34.49,0.06-51.73-0.05C585.5,603.23,596.93,584.37,608.41,565.55z"/>
		
			<linearGradient id="SVGID_00000036228600187470872630000006289044982516419736_" gradientUnits="userSpaceOnUse" x1="631.8557" y1="642.8101" x2="709.5854" y2="642.8101">
			<stop  offset="0" style="stop-color:#C9983E"/>
			<stop  offset="1" style="stop-color:#DBB759"/>
		</linearGradient>
		<path style="fill:url(#SVGID_00000036228600187470872630000006289044982516419736_);" d="M631.86,674.81
			c13.08-21.35,25.96-42.81,39.24-64.05c10.55,17.78,21.37,35.4,32.05,53.1c2.28,3.56,4.41,7.22,6.44,10.93
			C683.68,674.87,657.77,674.88,631.86,674.81z"/>
	</g>
	<g>
		<g>
			
				<linearGradient id="SVGID_00000008115456433805956880000010232426854082799539_" gradientUnits="userSpaceOnUse" x1="314.7391" y1="739.3433" x2="354.0848" y2="739.3433">
				<stop  offset="0" style="stop-color:#C9983E"/>
				<stop  offset="1" style="stop-color:#DBB759"/>
			</linearGradient>
			<path style="fill:url(#SVGID_00000008115456433805956880000010232426854082799539_);" d="M337.06,761.68
				c-3.18,0-6.14-0.55-8.86-1.64c-2.73-1.09-5.09-2.64-7.1-4.66c-2-2.01-3.56-4.38-4.68-7.1c-1.12-2.72-1.68-5.7-1.68-8.95
				c0-3.25,0.56-6.23,1.68-8.95c1.12-2.72,2.69-5.08,4.71-7.1c2.02-2.02,4.39-3.57,7.1-4.66c2.71-1.09,5.67-1.64,8.89-1.64
				c3.57,0,6.8,0.65,9.69,1.94c2.89,1.3,5.31,3.2,7.27,5.71l-6.13,5.92c-1.41-1.69-2.98-2.95-4.71-3.8
				c-1.73-0.84-3.61-1.26-5.65-1.26c-1.92,0-3.69,0.33-5.3,0.99c-1.61,0.66-3,1.6-4.18,2.84c-1.18,1.23-2.09,2.69-2.74,4.38
				c-0.65,1.69-0.97,3.56-0.97,5.62c0,2.06,0.32,3.93,0.97,5.62c0.65,1.69,1.56,3.15,2.74,4.38c1.18,1.23,2.57,2.18,4.18,2.84
				c1.61,0.66,3.38,0.99,5.3,0.99c2.04,0,3.93-0.42,5.65-1.27c1.73-0.84,3.3-2.13,4.71-3.86l6.13,5.92
				c-1.96,2.51-4.39,4.42-7.27,5.74C343.92,761.02,340.67,761.68,337.06,761.68z"/>
			
				<linearGradient id="SVGID_00000097482575623908226930000014617843827607029912_" gradientUnits="userSpaceOnUse" x1="362.9199" y1="739.3431" x2="393.1361" y2="739.3431">
				<stop  offset="0" style="stop-color:#C9983E"/>
				<stop  offset="1" style="stop-color:#DBB759"/>
			</linearGradient>
			<path style="fill:url(#SVGID_00000097482575623908226930000014617843827607029912_);" d="M362.92,760.94v-43.19h9.54v35.05h20.67
				v8.15H362.92z"/>
			
				<linearGradient id="SVGID_00000071556233404921694370000013129946249030184083_" gradientUnits="userSpaceOnUse" x1="401.4405" y1="739.3431" x2="410.9825" y2="739.3431">
				<stop  offset="0" style="stop-color:#C9983E"/>
				<stop  offset="1" style="stop-color:#DBB759"/>
			</linearGradient>
			<path style="fill:url(#SVGID_00000071556233404921694370000013129946249030184083_);" d="M401.44,760.94v-43.19h9.54v43.19
				H401.44z"/>
			
				<linearGradient id="SVGID_00000135668744505364229190000013201989397922900887_" gradientUnits="userSpaceOnUse" x1="423.7042" y1="739.3431" x2="455.6285" y2="739.3431">
				<stop  offset="0" style="stop-color:#C9983E"/>
				<stop  offset="1" style="stop-color:#DBB759"/>
			</linearGradient>
			<path style="fill:url(#SVGID_00000135668744505364229190000013201989397922900887_);" d="M423.7,760.94v-43.19h31.16v8.02h-21.68
				v27.15h22.44v8.02H423.7z M432.48,742.92v-7.78h19.85v7.78H432.48z"/>
			
				<linearGradient id="SVGID_00000075148279021906662180000014864938700917100198_" gradientUnits="userSpaceOnUse" x1="466.1713" y1="739.3431" x2="503.9858" y2="739.3431">
				<stop  offset="0" style="stop-color:#C9983E"/>
				<stop  offset="1" style="stop-color:#DBB759"/>
			</linearGradient>
			<path style="fill:url(#SVGID_00000075148279021906662180000014864938700917100198_);" d="M466.17,760.94v-43.19h7.89l24.33,31.1
				h-3.83v-31.1h9.42v43.19h-7.83l-24.38-31.1h3.83v31.1H466.17z"/>
			
				<linearGradient id="SVGID_00000141419914822175770640000002317716749254579618_" gradientUnits="userSpaceOnUse" x1="512.0549" y1="739.3431" x2="547.9844" y2="739.3431">
				<stop  offset="0" style="stop-color:#C9983E"/>
				<stop  offset="1" style="stop-color:#DBB759"/>
			</linearGradient>
			<path style="fill:url(#SVGID_00000141419914822175770640000002317716749254579618_);" d="M525.25,760.94v-35.05h-13.19v-8.15
				h35.93v8.15h-13.19v35.05H525.25z"/>
			
				<linearGradient id="SVGID_00000091013715281270727420000009609129029019203474_" gradientUnits="userSpaceOnUse" x1="570.2483" y1="739.3431" x2="616.4854" y2="739.3431">
				<stop  offset="0" style="stop-color:#C9983E"/>
				<stop  offset="1" style="stop-color:#DBB759"/>
			</linearGradient>
			<path style="fill:url(#SVGID_00000091013715281270727420000009609129029019203474_);" d="M570.25,760.94l18.38-43.19h9.42
				l18.44,43.19h-10.01l-15.08-38.13h3.77l-15.14,38.13H570.25z M579.44,751.68l2.53-7.59h21.2l2.59,7.59H579.44z"/>
			
				<linearGradient id="SVGID_00000110434711550422652440000015311954328310203802_" gradientUnits="userSpaceOnUse" x1="622.4929" y1="739.7134" x2="659.8361" y2="739.7134">
				<stop  offset="0" style="stop-color:#C9983E"/>
				<stop  offset="1" style="stop-color:#DBB759"/>
			</linearGradient>
			<path style="fill:url(#SVGID_00000110434711550422652440000015311954328310203802_);" d="M641.16,761.68
				c-5.85,0-10.43-1.71-13.72-5.12c-3.3-3.41-4.95-8.29-4.95-14.62v-24.19h9.54v23.82c0,4.11,0.8,7.08,2.41,8.89
				c1.61,1.81,3.87,2.72,6.77,2.72c2.91,0,5.16-0.9,6.77-2.72c1.61-1.81,2.41-4.77,2.41-8.89v-23.82h9.42v24.19
				c0,6.34-1.65,11.21-4.95,14.62C651.59,759.97,647.01,761.68,641.16,761.68z"/>
			
				<linearGradient id="SVGID_00000116950051773012078150000000422244609408552835_" gradientUnits="userSpaceOnUse" x1="666.7274" y1="739.3431" x2="702.6568" y2="739.3431">
				<stop  offset="0" style="stop-color:#C9983E"/>
				<stop  offset="1" style="stop-color:#DBB759"/>
			</linearGradient>
			<path style="fill:url(#SVGID_00000116950051773012078150000000422244609408552835_);" d="M679.92,760.94v-35.05h-13.19v-8.15
				h35.93v8.15h-13.19v35.05H679.92z"/>
			
				<linearGradient id="SVGID_00000173138527324539928090000002123804366685374123_" gradientUnits="userSpaceOnUse" x1="707.546" y1="739.3433" x2="752.6642" y2="739.3433">
				<stop  offset="0" style="stop-color:#C9983E"/>
				<stop  offset="1" style="stop-color:#DBB759"/>
			</linearGradient>
			<path style="fill:url(#SVGID_00000173138527324539928090000002123804366685374123_);" d="M730.16,761.68
				c-3.26,0-6.27-0.56-9.04-1.67c-2.77-1.11-5.16-2.67-7.19-4.69c-2.02-2.02-3.59-4.38-4.71-7.1c-1.12-2.71-1.68-5.68-1.68-8.89
				s0.56-6.17,1.68-8.89c1.12-2.72,2.7-5.08,4.74-7.1c2.04-2.01,4.44-3.58,7.19-4.69c2.75-1.11,5.73-1.67,8.95-1.67
				c3.26,0,6.25,0.56,8.98,1.67c2.73,1.11,5.1,2.67,7.13,4.69c2.02,2.02,3.6,4.37,4.74,7.07c1.14,2.69,1.71,5.67,1.71,8.92
				c0,3.21-0.57,6.18-1.71,8.92c-1.14,2.74-2.72,5.1-4.74,7.1c-2.02,2-4.4,3.55-7.13,4.66
				C736.36,761.13,733.38,761.68,730.16,761.68z M730.11,753.17c1.85,0,3.54-0.33,5.09-0.99c1.55-0.66,2.92-1.6,4.09-2.84
				c1.18-1.23,2.09-2.69,2.74-4.38c0.65-1.69,0.97-3.56,0.97-5.62c0-2.06-0.32-3.93-0.97-5.62c-0.65-1.69-1.55-3.15-2.71-4.38
				c-1.16-1.23-2.52-2.18-4.09-2.84c-1.57-0.66-3.28-0.99-5.12-0.99c-1.85,0-3.54,0.33-5.09,0.99c-1.55,0.66-2.92,1.6-4.09,2.84
				c-1.18,1.23-2.09,2.69-2.74,4.38c-0.65,1.69-0.97,3.56-0.97,5.62c0,2.02,0.32,3.88,0.97,5.58c0.65,1.71,1.55,3.18,2.71,4.41
				c1.16,1.23,2.52,2.18,4.09,2.84C726.55,752.84,728.26,753.17,730.11,753.17z"/>
			
				<linearGradient id="SVGID_00000028296982927927682500000018423957875239201922_" gradientUnits="userSpaceOnUse" x1="762.7947" y1="739.3431" x2="809.2673" y2="739.3431">
				<stop  offset="0" style="stop-color:#C9983E"/>
				<stop  offset="1" style="stop-color:#DBB759"/>
			</linearGradient>
			<path style="fill:url(#SVGID_00000028296982927927682500000018423957875239201922_);" d="M762.79,760.94v-43.19h7.89l17.55,30.48
				h-4.18l17.26-30.48h7.83l0.12,43.19h-8.95l-0.06-28.82h1.65l-13.78,24.25h-4.3l-14.08-24.25h2v28.82H762.79z"/>
			
				<linearGradient id="SVGID_00000147186421881330754090000006260496751491886250_" gradientUnits="userSpaceOnUse" x1="816.5702" y1="739.3431" x2="862.8073" y2="739.3431">
				<stop  offset="0" style="stop-color:#C9983E"/>
				<stop  offset="1" style="stop-color:#DBB759"/>
			</linearGradient>
			<path style="fill:url(#SVGID_00000147186421881330754090000006260496751491886250_);" d="M816.57,760.94l18.38-43.19h9.42
				l18.44,43.19h-10.01l-15.08-38.13h3.77l-15.14,38.13H816.57z M825.76,751.68l2.53-7.59h21.2l2.59,7.59H825.76z"/>
			
				<linearGradient id="SVGID_00000014617029648225300370000014219738977455645076_" gradientUnits="userSpaceOnUse" x1="863.3376" y1="739.3431" x2="899.2672" y2="739.3431">
				<stop  offset="0" style="stop-color:#C9983E"/>
				<stop  offset="1" style="stop-color:#DBB759"/>
			</linearGradient>
			<path style="fill:url(#SVGID_00000014617029648225300370000014219738977455645076_);" d="M876.53,760.94v-35.05h-13.19v-8.15
				h35.93v8.15h-13.19v35.05H876.53z"/>
			
				<linearGradient id="SVGID_00000098943713988645741130000006864127409324922303_" gradientUnits="userSpaceOnUse" x1="907.3366" y1="739.3431" x2="939.2609" y2="739.3431">
				<stop  offset="0" style="stop-color:#C9983E"/>
				<stop  offset="1" style="stop-color:#DBB759"/>
			</linearGradient>
			<path style="fill:url(#SVGID_00000098943713988645741130000006864127409324922303_);" d="M907.34,760.94v-43.19h31.16v8.02
				h-21.68v27.15h22.44v8.02H907.34z M916.11,742.92v-7.78h19.85v7.78H916.11z"/>
		</g>
		<g>
			
				<linearGradient id="SVGID_00000176006070930474081610000003857851319915530909_" gradientUnits="userSpaceOnUse" x1="352.6706" y1="793.6678" x2="579.7682" y2="793.6678">
				<stop  offset="0" style="stop-color:#C9983E"/>
				<stop  offset="1" style="stop-color:#DBB759"/>
			</linearGradient>
			
				<rect x="352.67" y="791.55" style="fill:url(#SVGID_00000176006070930474081610000003857851319915530909_);" width="227.1" height="4.24"/>
			
				<linearGradient id="SVGID_00000080196766259152402500000007864277670854493086_" gradientUnits="userSpaceOnUse" x1="674.2318" y1="793.6678" x2="901.3294" y2="793.6678">
				<stop  offset="0" style="stop-color:#C9983E"/>
				<stop  offset="1" style="stop-color:#DBB759"/>
			</linearGradient>
			
				<rect x="674.23" y="791.55" style="fill:url(#SVGID_00000080196766259152402500000007864277670854493086_);" width="227.1" height="4.24"/>
			
				<linearGradient id="SVGID_00000093861578016460041540000009539178817387542695_" gradientUnits="userSpaceOnUse" x1="620.745" y1="793.6678" x2="632.8612" y2="793.6678">
				<stop  offset="0" style="stop-color:#C9983E"/>
				<stop  offset="1" style="stop-color:#DBB759"/>
			</linearGradient>
			<circle style="fill:url(#SVGID_00000093861578016460041540000009539178817387542695_);" cx="626.8" cy="793.67" r="6.06"/>
		</g>
	</g>
</g>
</svg>
